<svg width="264" height="264" opacity="0.1" viewBox="0 0 264 264" fill="none" xmlns="http://www.w3.org/2000/svg">
	<path d="M149.186 17.0449C152.659 17.7139 154.209 21.8084 152.049 24.6097L146.845 31.3613C142.41 37.1136 134.606 39.0672 127.984 36.0823C123.531 34.0749 121.549 28.8377 123.556 24.3847C126.541 17.7633 133.683 14.0588 140.815 15.4325L149.186 17.0449Z" fill="black" />
	<path d="M128.062 34.0003C127.358 33.6619 127.215 33.0642 126.987 32.4408C126.527 31.1819 126.488 29.7265 127.534 28.8894C131.332 25.8525 144.028 21.8641 149.6 21.2451C151.387 21.0465 152.286 22.8087 150.845 23.8838C143.971 29.0108 137.084 38.3356 128.062 34.0003Z" fill="#0F0F0F" />
	<path d="M203.342 227.204C203.84 230.706 200.472 233.504 197.121 232.373L189.043 229.648C182.161 227.327 177.774 220.582 178.443 213.35C178.892 208.486 183.199 204.908 188.063 205.357C195.295 206.025 201.122 211.573 202.143 218.764L203.342 227.204Z" fill="black" />
	<path d="M180.437 212.746C180.528 211.97 181.046 211.641 181.562 211.223C182.602 210.378 183.966 209.867 185.098 210.585C189.205 213.188 197.107 223.895 199.505 228.963C200.275 230.588 198.901 232.011 197.415 230.998C190.331 226.166 179.273 222.688 180.437 212.746Z" fill="#0F0F0F" />
	<path d="M72.8634 189.121C76.0073 190.742 76.3404 195.108 73.4788 197.187L66.582 202.198C60.706 206.467 52.6672 206.141 47.1556 201.411C43.4489 198.23 43.0229 192.646 46.204 188.94C50.9342 183.428 58.8305 181.887 65.2862 185.215L72.8634 189.121Z" fill="black" />
	<path d="M47.8173 199.435C47.237 198.912 47.2683 198.299 47.2254 197.636C47.1389 196.299 47.5112 194.891 48.7514 194.383C53.2511 192.54 66.5568 192.292 72.0772 193.268C73.8478 193.581 74.2137 195.526 72.5278 196.151C64.4874 199.132 55.2513 206.138 47.8173 199.435Z" fill="#0F0F0F" />
	<path d="M128.249 124.901C127.656 121.414 130.946 118.525 134.327 119.563L142.476 122.066C149.419 124.199 153.989 130.821 153.519 138.068C153.203 142.943 148.995 146.638 144.121 146.322C136.873 145.852 130.896 140.465 129.679 133.305L128.249 124.901Z" fill="black" />
	<path d="M151.542 138.726C151.472 139.504 150.963 139.848 150.459 140.28C149.442 141.153 148.093 141.701 146.942 141.015C142.765 138.525 134.572 128.038 132.037 123.038C131.223 121.434 132.558 119.974 134.07 120.946C141.284 125.582 152.434 128.757 151.542 138.726Z" fill="#0F0F0F" />
	<path d="M230.354 76.0725C227.161 77.5948 223.484 75.2186 223.56 71.6823L223.744 63.1593C223.9 55.8979 229.024 49.6947 236.125 48.1687C240.9 47.1424 245.603 50.1818 246.63 54.9573C248.156 62.0583 244.605 69.2777 238.049 72.4036L230.354 76.0725Z" fill="black" />
	<path d="M237.297 49.8909C238.065 49.7455 238.534 50.1417 239.088 50.5084C240.205 51.2488 241.1 52.3969 240.754 53.6918C239.499 58.3896 231.646 69.1333 227.528 72.9375C226.207 74.1577 224.438 73.2726 224.96 71.552C227.452 63.3464 227.463 51.7541 237.297 49.8909Z" fill="#0F0F0F" />
	<path d="M25.715 94.2836C22.8179 92.2542 23.0756 87.8838 26.191 86.2089L33.6997 82.1722C40.0969 78.733 48.0187 80.1377 52.8433 85.5668C56.088 89.218 55.7584 94.8082 52.1072 98.0528C46.6781 102.877 38.6461 103.342 32.6973 99.1746L25.715 94.2836Z" fill="black" />
	<path d="M51.9216 87.4354C52.4261 88.0319 52.3126 88.6359 52.2659 89.2979C52.1716 90.6349 51.6131 91.9795 50.3158 92.316C45.6089 93.5369 32.391 91.9914 27.0523 90.2805C25.34 89.7317 25.2391 87.756 26.9939 87.3635C35.3625 85.4914 45.4576 79.7931 51.9216 87.4354Z" fill="#0F0F0F" />
</svg>
